<?xml version="1.0" encoding="utf-8"?>
<!-- Generator: Adobe Illustrator 22.1.0, SVG Export Plug-In . SVG Version: 6.00 Build 0)  -->
<svg version="1.1" id="Слой_1" xmlns="http://www.w3.org/2000/svg" xmlns:xlink="http://www.w3.org/1999/xlink" x="0px" y="0px"
	 viewBox="0 0 28.6 27.8" style="enable-background:new 0 0 28.6 27.8;" xml:space="preserve">
<style type="text/css">
	.st0{fill:#CFB27B;}
</style>
<g>
	<g>
		<path class="st0" d="M23.6,14.5c0.2-0.3,0.4-0.8,0.5-1l1.4-3.5c0.3-0.7-0.2-1.1-0.6-1.4c-0.8-0.5-1.3-0.2-1.5,0.2l-1.2,3.4
			c-0.1,0.3-0.3,0.6-0.4,0.8c-0.6,0.9-1.1,1.7-1.7,2.7c-0.7,0.8-0.6,1.1-0.5,1.6l1,3.6c1.5-0.3,3.6-1.6,4-2.2c0.5-0.6,1-1.6,1.5-2.3
			c0.2-0.3,0.3-0.6,0.4-1l1.1-3c0.4-1.1-0.2-1.4-0.6-1.6c-0.3-0.2-0.9-0.4-1.1,0.1l-1.4,3.4l-0.2,0.6l-1.9,2.7
			c-0.1,0.2-0.7-0.3-0.5-0.4L23.6,14.5L23.6,14.5z"/>
		<path class="st0" d="M28,13.4c-0.2-0.2-0.4,0.2-0.5,0.5l-1,2.7c-0.1,0.5-0.2,0.6-0.4,0.8c-0.5,0.7-1,1.5-1.5,2.2
			c-2.5,2.9-8.7,3.9-12.2,3.9c1,1.6,2.2,2.9,3.3,3.6C8.2,24.8,3.7,15,8.2,7.7c-1.8,0.6-5.6,3.4-5.5,8.3c0,0.7,0.1,1.4,0.2,2
			c-0.5-1.2-0.7-2.4-0.6-3.5c0-2.3,0.9-5.2,3.9-7.1c3.4-2.2,7.1-2.1,11.5,1.1c0.6,0.5,1.6,0.3,2.2-0.2c-0.2,0.5-0.4,1.1-0.6,1.6
			c-0.1,0.3-0.2,0.6-0.4,0.9c-0.7,1-1.4,2.1-2.1,3c-0.6,0.8-0.9,0.7-1.2,0.7c-0.8,0-0.9,0.1-1-0.4l-1-3.7c-0.1-0.3-0.4-0.8-1-0.8
			c-0.4,0-0.4,0-0.8,0c-0.6,0-1,0.4-1,1.1c0,4.4,1.1,9.5,1.8,11.4c1.7,0.1,5.4-0.4,7-1.1c-0.2-0.6-0.9-2.9-1.1-3.5
			c-0.2-0.8,0-1.4,0.3-1.8c0.8-1,1.4-2.1,2.1-3.1c0.2-0.3,0.4-0.7,0.5-1.2l0.8-2.7c0.2-0.6,0.1-1-0.3-1.3c-0.6-0.4-1.4,0.1-1.8,0.3
			c0.3-0.8-0.2-1.7-1.1-2.3c-1.9-1.2-3.7-1.9-5.3-2.2c0.3-0.1,0.7-0.2,1-0.3c5-1,11.1,2.1,13.2,7.1h0.2C26.5,4.2,20.5,0,14.1,0
			c-4,0-8,1.6-10.8,4.8C2.6,5.5,1.4,7.5,1,9.1c-0.2,0.6-0.3,1.3-0.4,2c-0.5,1.5-0.7,3-0.6,4.5c0.2,2.3,0.8,4.1,2.1,6.1
			c1.8,2.6,5.4,5.5,10,6l-0.1,0c1.8,0.3,3.6,0.2,4.5,0.1c3-0.4,6.9-2.3,9.4-5.7c1.5-2,2-3.7,2.5-6.1C28.7,14.7,28.7,13.9,28,13.4
			L28,13.4z"/>
	</g>
</g>
</svg>
