<?xml version="1.0" encoding="utf-8"?>
<!-- Generator: Adobe Illustrator 22.1.0, SVG Export Plug-In . SVG Version: 6.00 Build 0)  -->
<svg version="1.1" id="Слой_1" xmlns="http://www.w3.org/2000/svg" xmlns:xlink="http://www.w3.org/1999/xlink" x="0px" y="0px"
	 viewBox="0 0 85 28" style="enable-background:new 0 0 85 28;" xml:space="preserve">
<style type="text/css">
	.st0{fill:#ffffff;}
</style>
<g>
	<g>
		<path class="st0" d="M82.8,14.1c-1.5-1.5-3.3-2.3-5.4-2.3c-0.8,0-1.3,0-2.3,0.4l7.1-10.5L79.7,0l-8.1,12c-1.1,1.7-1.9,3.1-2.4,4.3
			c-0.4,1.2-0.7,2.3-0.7,3.4c0,1.5,0.4,2.8,1.1,4.1c0.7,1.2,1.7,2.3,2.9,3c1.2,0.7,2.6,1.1,4.1,1.1c1.5,0,2.9-0.4,4.2-1.1
			c1.3-0.7,2.3-1.7,3-2.9s1.1-2.6,1.1-4.1C85,17.5,84.2,15.7,82.8,14.1L82.8,14.1z M80.6,23.6c-1.1,1-2.3,1.6-3.8,1.6
			c-1.5,0-2.8-0.5-3.8-1.6c-1.1-1-1.6-2.3-1.6-3.8c0-1.5,0.5-2.8,1.6-3.8c1.1-1.1,2.3-1.6,3.8-1.6s2.8,0.5,3.8,1.6
			c1.1,1,1.6,2.3,1.6,3.8C82.1,21.3,81.6,22.5,80.6,23.6z"/>
		<path class="st0" d="M45.9,15.5L38.7,0h-4.9v27.9h3.4v-24l7.5,16.3h2.2l7.6-16.3v24H58V0h-5L45.9,15.5z M23.6,14.6
			c0.2-0.3,0.4-0.8,0.5-1l1.4-3.5c0.3-0.7-0.2-1.1-0.6-1.4C24,8.2,23.5,8.5,23.3,9l-1.2,3.4c-0.1,0.3-0.3,0.6-0.4,0.8
			c-0.6,0.9-1.1,1.7-1.7,2.7c-0.7,0.8-0.6,1.1-0.5,1.6l1,3.6c1.5-0.3,3.6-1.6,4-2.2c0.5-0.6,1-1.6,1.5-2.3c0.2-0.3,0.3-0.6,0.4-1
			l1.1-3c0.4-1.1-0.2-1.4-0.6-1.6c-0.3-0.2-0.9-0.4-1.1,0.1l-1.4,3.4L24.1,15l-1.9,2.7c-0.1,0.2-0.7-0.3-0.5-0.4L23.6,14.6
			L23.6,14.6z"/>
		<path class="st0" d="M28,13.4c-0.2-0.2-0.4,0.2-0.5,0.5l-1,2.7c-0.1,0.5-0.2,0.6-0.4,0.8c-0.5,0.7-1,1.5-1.5,2.2
			c-2.5,2.9-8.7,3.9-12.2,3.9c1,1.6,2.2,2.9,3.3,3.6C8.2,24.9,3.7,15.1,8.2,7.8c-1.8,0.6-5.6,3.4-5.5,8.3c0,0.7,0.1,1.4,0.2,2
			c-0.5-1.2-0.7-2.4-0.6-3.5c0-2.3,0.9-5.2,3.9-7.1c3.4-2.2,7.1-2.1,11.5,1.1c0.6,0.5,1.6,0.3,2.2-0.2c-0.2,0.5-0.4,1.1-0.6,1.6
			c-0.1,0.3-0.2,0.6-0.4,0.9c-0.7,1-1.4,2.1-2.1,3c-0.6,0.8-0.9,0.7-1.2,0.7c-0.8,0-0.9,0.1-1-0.4l-1-3.7c-0.1-0.3-0.4-0.8-1-0.8
			c-0.4,0-0.4,0-0.8,0c-0.6,0-1,0.4-1,1.1c0,4.4,1.1,9.5,1.8,11.4c1.7,0.1,5.4-0.4,7-1.1c-0.2-0.6-0.9-2.9-1.1-3.5
			c-0.2-0.8,0-1.4,0.3-1.8c0.8-1,1.4-2.1,2.1-3.1c0.2-0.3,0.4-0.7,0.5-1.2l0.8-2.7c0.2-0.6,0.1-1-0.3-1.3c-0.6-0.4-1.4,0.1-1.8,0.3
			c0.3-0.8-0.2-1.7-1.1-2.3c-1.9-1.2-3.7-1.9-5.3-2.2c0.3-0.1,0.7-0.2,1-0.3c5-1,11.1,2.1,13.2,7.1h0.2c-1.7-6-7.7-10.2-14.1-10.2
			c-4,0-8,1.6-10.8,4.8C2.6,5.6,1.4,7.6,1,9.1c-0.2,0.6-0.3,1.3-0.4,2c-0.5,1.5-0.7,3-0.6,4.5c0.2,2.3,0.8,4.1,2.1,6.1
			c1.8,2.6,5.4,5.5,10,6l-0.1,0c1.8,0.3,3.6,0.2,4.5,0.1c3-0.4,6.9-2.3,9.4-5.7c1.5-2,2-3.7,2.5-6.1C28.7,14.7,28.7,13.9,28,13.4
			L28,13.4z M60.7,3.3h1.9v24.5h3.6V0h-4.4L60.7,3.3z"/>
	</g>
</g>
</svg>
