<svg xmlns="http://www.w3.org/2000/svg" width="34" height="28" viewBox="0 0 28 28">
    <path fill="#CFB27B" fill-rule="evenodd" d="M28.023 13.443c-.245-.172-.403.19-.51.491l-.973 2.712c-.147.455-.247.576-.447.848-.512.696-.99 1.55-1.503 2.246-2.491 2.947-8.652 3.857-12.157 3.891.96 1.552 2.216 2.888 3.323 3.628C8.235 24.906 3.7 15.11 8.175 7.823c-1.807.61-5.58 3.388-5.467 8.336.016.705.084 1.385.199 2.041-.453-1.212-.666-2.396-.642-3.504.05-2.334.927-5.168 3.938-7.071C9.645 5.448 13.3 5.507 17.681 8.7c.65.475 1.606.339 2.163-.167-.22.546-.436 1.092-.644 1.64-.116.305-.239.602-.424.855-.706.958-1.36 2.09-2.085 3.035-.61.797-.906.748-1.226.73-.76-.042-.873.11-1.018-.427l-.988-3.66c-.091-.337-.375-.761-.964-.826-.401-.044-.427-.032-.831-.034-.588-.002-.963.443-.969 1.067-.044 4.404 1.131 9.462 1.823 11.422 1.666.075 5.356-.361 7.034-1.093-.191-.626-.9-2.909-1.06-3.543-.194-.765-.024-1.363.342-1.834.759-.977 1.4-2.126 2.117-3.078.245-.327.415-.727.542-1.157l.798-2.725c.202-.585.095-.997-.312-1.29-.623-.445-1.407.134-1.751.35.286-.785-.151-1.694-1.145-2.328-1.877-1.2-3.652-1.885-5.295-2.206.341-.105.686-.19 1.035-.257 5.022-.952 11.052 2.132 13.203 7.13h.184C26.543 4.292 20.5.083 14.062.082c-4.043 0-7.976 1.603-10.785 4.786-.672.76-1.927 2.687-2.33 4.278a17.54 17.54 0 0 0-.353 1.97A11.533 11.533 0 0 0 .03 15.66c.16 2.266.805 4.085 2.145 6.09 1.763 2.64 5.411 5.476 9.984 5.993l-.075-.043c1.795.26 3.63.203 4.523.073 3.04-.443 6.92-2.314 9.357-5.664 1.465-2.015 2.03-3.654 2.487-6.14.227-1.233.27-2.037-.429-2.526z"/>
</svg>
