<svg xmlns="http://www.w3.org/2000/svg" xmlns:xlink="http://www.w3.org/1999/xlink" width="112" height="105" viewBox="0 0 112 105">
    <defs>
        <path id="a" d="M0 0h112v105H0z"/>
    </defs>
    <g fill="none" fill-rule="evenodd">
        <mask id="b" fill="#fff">
            <use xlink:href="#a"/>
        </mask>
        <path fill="#2ECB6B" d="M80.22 46.302l8.817-15.51 8.818 15.51H80.22zm-48.44 0H14.144l8.817-15.51 8.817 15.51zm78.26 0h-3.856s-13.35-23.452-14.041-24.67c-.74-1.304-1.86-2.446-3.537-2.446-8.156 0-15.767-1.606-21.43-4.524-2.827-1.456-4.958-3.16-6.26-4.95V4.54C60.916 2.032 58.716 0 56 0s-4.917 2.032-4.917 4.54v5.173c-1.302 1.79-3.433 3.493-6.259 4.949-5.664 2.917-13.275 4.524-21.431 4.524-1.676 0-2.685.95-3.537 2.447-1.99 3.5-14.04 24.669-14.04 24.669H1.959c-.551 0-1.077.214-1.448.59-.371.377-.553.88-.503 1.387 1.08 10.828 10.945 19.307 22.954 19.307 12.01 0 21.874-8.479 22.954-19.307a1.725 1.725 0 0 0-.503-1.385 2.037 2.037 0 0 0-1.448-.592h-3.857l-11.65-20.493c9.077-.672 17-3.13 22.625-6.741V93.65H28.8c-3.394 0-6.145 2.54-6.145 5.674 0 3.134 2.751 5.675 6.145 5.675h53.457c3.394 0 6.145-2.54 6.145-5.675 0-3.134-2.751-5.674-6.145-5.674h-21.34V19.068c5.626 3.61 13.549 6.07 22.625 6.741l-11.65 20.493h-3.857c-.55 0-1.077.214-1.448.59-.371.377-.553.88-.502 1.387 1.08 10.828 10.944 19.307 22.954 19.307s21.874-8.479 22.954-19.307a1.726 1.726 0 0 0-.504-1.385 2.037 2.037 0 0 0-1.447-.592z" mask="url(#b)"/>
    </g>
</svg>
