<svg xmlns="http://www.w3.org/2000/svg" xmlns:xlink="http://www.w3.org/1999/xlink" width="95" height="111" viewBox="0 0 95 111">
    <defs>
        <path id="a" d="M0 0h95v111H0z"/>
    </defs>
    <g fill="none" fill-rule="evenodd">
        <mask id="b" fill="#fff">
            <use xlink:href="#a"/>
        </mask>
        <path fill="#2ECB6B" d="M73.466 85.242v-27.58c6.476 1.206 11.4 6.927 11.4 13.79.003 6.866-4.924 12.584-11.4 13.79zM22.802 90.59c0 2.814-2.27 5.103-5.067 5.103s-5.066-2.289-5.066-5.103V52.312c0-2.818 2.269-5.105 5.066-5.105 2.797 0 5.067 2.287 5.067 5.105V90.59zm50.664-43.242v-7.795c0-2.818-2.27-5.104-5.064-5.104H55.239c2.66-3.492 3.756-6.872 3.257-10.226-.624-4.162-3.541-7.452-6.118-10.361-3.683-4.16-5.684-6.68-3.899-10.132A2.568 2.568 0 0 0 47.736.5a2.513 2.513 0 0 0-3.278.232c-11.84 11.71-5.562 19.379-.975 24.981 2.93 3.583 4.696 5.959 4.114 8.736H32.444c2.663-3.493 3.756-6.872 3.257-10.226-.622-4.162-3.541-7.452-6.118-10.361-3.686-4.16-5.686-6.68-3.902-10.132a2.564 2.564 0 0 0-.74-3.23c-1-.746-2.394-.649-3.28.232-11.841 11.71-5.56 19.379-.974 24.981 2.931 3.583 4.694 5.959 4.113 8.736H5.067C2.269 34.45 0 36.735 0 39.553V93.14C0 102.99 7.958 111 17.733 111h38c8.955 0 16.364-6.731 17.548-15.43C85.448 94.376 95 84.018 95 71.448c.002-12.5-9.45-22.82-21.534-24.1z" mask="url(#b)"/>
    </g>
</svg>
