<svg xmlns="http://www.w3.org/2000/svg" xmlns:xlink="http://www.w3.org/1999/xlink" width="111" height="99" viewBox="0 0 111 99">
    <defs>
        <path id="a" d="M.065.275h63.826V32.81H.065z"/>
    </defs>
    <g fill="none" fill-rule="evenodd">
        <path fill="#2ECB6B" d="M32.064 58c3.101 0 6.1-.205 8.936-.587V25.586A67.222 67.222 0 0 0 32.064 25C14.356 25 0 31.665 0 39.886v3.228C0 51.335 14.356 58 32.064 58M32.064 74c3.101 0 6.1-.203 8.936-.582v-9.257a67.723 67.723 0 0 1-8.936.585c-15.458 0-28.36-5.04-31.39-11.746A7.299 7.299 0 0 0 0 56.025v3.204C0 67.387 14.356 74 32.064 74M40.809 81.88v-.719a67.098 67.098 0 0 1-8.894.585C16.529 81.746 3.688 76.706.67 70A7.325 7.325 0 0 0 0 73.025v3.203C0 84.387 14.289 91 31.915 91c3.524 0 6.915-.265 10.085-.754a11.848 11.848 0 0 1-1.191-5.162v-3.203z"/>
        <g transform="translate(47)">
            <mask id="b" fill="#fff">
                <use xlink:href="#a"/>
            </mask>
            <path fill="#2ECB6B" d="M31.978.275C14.353.275.065 6.845.065 14.951v3.183c0 8.105 14.288 14.675 31.913 14.675s31.913-6.57 31.913-14.675V14.95C63.89 6.846 49.603.275 31.978.275" mask="url(#b)"/>
        </g>
        <path fill="#2ECB6B" d="M79 40.746c-15.427 0-28.303-5.04-31.327-11.746A7.309 7.309 0 0 0 47 32.025v3.204C47 43.387 61.327 50 79 50c17.673 0 32-6.613 32-14.771v-3.204a7.313 7.313 0 0 0-.673-3.025c-3.024 6.707-15.9 11.746-31.327 11.746"/>
        <path fill="#2ECB6B" d="M79 56.746c-15.427 0-28.303-5.04-31.327-11.746A7.31 7.31 0 0 0 47 48.025v3.204C47 59.387 61.327 66 79 66c17.673 0 32-6.613 32-14.771v-3.204a7.314 7.314 0 0 0-.673-3.025c-3.024 6.707-15.9 11.746-31.327 11.746"/>
        <path fill="#2ECB6B" d="M79 73.746c-15.427 0-28.303-5.04-31.327-11.746A7.31 7.31 0 0 0 47 65.025v3.204C47 76.387 61.327 83 79 83c17.673 0 32-6.613 32-14.771v-3.204a7.312 7.312 0 0 0-.673-3.025c-3.024 6.706-15.9 11.746-31.327 11.746"/>
        <path fill="#2ECB6B" d="M79 89.746c-15.427 0-28.303-5.04-31.327-11.746A7.312 7.312 0 0 0 47 81.026v3.203C47 92.387 61.327 99 79 99c17.673 0 32-6.613 32-14.771v-3.204a7.312 7.312 0 0 0-.673-3.025c-3.024 6.707-15.9 11.746-31.327 11.746"/>
    </g>
</svg>
