<?xml version="1.0" standalone="no"?>
<!DOCTYPE svg PUBLIC "-//W3C//DTD SVG 20010904//EN"
 "http://www.w3.org/TR/2001/REC-SVG-20010904/DTD/svg10.dtd">
<svg version="1.0" xmlns="http://www.w3.org/2000/svg"
 width="928.000000pt" height="928.000000pt" viewBox="0 0 928.000000 928.000000"
 preserveAspectRatio="xMidYMid meet">
<metadata>
Created by potrace 1.11, written by Peter Selinger 2001-2013
</metadata>
<g transform="translate(0.000000,928.000000) scale(0.100000,-0.100000)"
fill="#000000" stroke="none">
<path d="M4308 9145 c-3 -4 -168 -17 -230 -19 -21 -1 -38 -3 -38 -6 0 -3 -12
-5 -27 -6 -31 0 -123 -11 -163 -18 -41 -8 -93 -16 -130 -22 -19 -2 -42 -7 -50
-9 -8 -2 -31 -7 -50 -11 -39 -7 -63 -12 -70 -14 -3 -1 -13 -2 -22 -1 -10 1
-18 -1 -18 -6 0 -4 -13 -8 -28 -9 -16 -1 -53 -9 -83 -18 -30 -9 -61 -18 -69
-20 -58 -11 -242 -67 -257 -78 -7 -6 -17 -7 -23 -3 -5 3 -10 2 -10 -4 0 -6 -7
-8 -15 -5 -8 4 -15 1 -15 -5 0 -6 -3 -10 -7 -10 -5 1 -10 0 -13 -1 -3 -1 -12
-3 -20 -5 -42 -9 -278 -106 -406 -166 -34 -16 -67 -29 -73 -29 -6 0 -11 -4
-11 -10 0 -5 -5 -10 -12 -10 -16 0 -171 -80 -179 -92 -3 -5 -12 -10 -20 -11
-35 -5 -362 -216 -513 -330 -193 -145 -284 -225 -476 -417 -231 -232 -317
-331 -424 -490 -31 -47 -61 -90 -66 -97 -6 -7 -15 -24 -22 -38 -6 -14 -16 -25
-21 -25 -6 0 -7 -3 -4 -6 4 -4 -2 -19 -12 -33 -57 -80 -225 -413 -286 -566 -9
-22 -20 -49 -25 -60 -11 -25 -61 -169 -64 -187 -2 -7 -6 -20 -9 -28 -4 -8 -11
-33 -16 -55 -5 -22 -19 -74 -31 -115 -12 -41 -24 -86 -26 -100 -3 -14 -7 -31
-10 -39 -2 -8 -7 -30 -10 -50 -3 -20 -12 -72 -20 -116 -15 -84 -20 -115 -29
-180 -8 -62 -11 -75 -50 -204 -43 -145 -92 -353 -110 -471 -2 -14 -7 -36 -9
-50 -3 -14 -8 -44 -10 -65 -2 -22 -8 -69 -13 -105 -10 -81 -11 -693 0 -775 17
-139 26 -206 32 -240 33 -184 75 -372 112 -495 10 -30 17 -58 17 -62 1 -3 4
-10 9 -14 4 -4 7 -14 7 -23 0 -18 52 -164 95 -266 27 -62 46 -110 47 -115 3
-18 169 -334 223 -424 36 -61 65 -114 65 -118 0 -4 3 -8 8 -8 4 0 16 -17 27
-37 11 -21 25 -44 32 -51 7 -7 20 -26 30 -42 9 -17 21 -30 25 -30 4 0 8 -6 8
-14 0 -8 3 -16 8 -18 4 -2 29 -32 57 -68 178 -231 445 -506 680 -700 50 -41
92 -77 95 -80 14 -16 211 -160 219 -160 5 0 11 -4 13 -9 5 -14 255 -175 398
-256 150 -85 419 -219 460 -230 3 0 20 -9 37 -18 18 -10 35 -17 38 -17 3 0 20
-6 38 -13 17 -8 50 -20 72 -27 22 -7 46 -17 53 -23 6 -5 12 -6 12 -2 0 4 7 1
17 -6 9 -8 19 -13 22 -13 7 2 7 2 96 -27 39 -13 75 -24 80 -25 6 -2 35 -10 65
-19 55 -16 73 -21 110 -30 11 -3 30 -8 43 -11 49 -13 104 -25 131 -29 16 -3
45 -9 65 -14 20 -5 54 -12 76 -16 22 -3 47 -7 55 -10 15 -4 85 -14 145 -20 17
-2 44 -7 60 -10 17 -4 41 -8 55 -9 14 -1 30 -5 35 -7 6 -3 30 -8 55 -10 81 -7
1354 -4 1400 4 25 4 56 9 70 12 14 3 36 8 50 10 14 2 41 7 60 11 19 3 84 19
145 35 60 16 119 31 129 34 24 6 116 34 136 42 8 4 17 7 20 8 64 16 320 114
455 175 39 17 91 41 118 52 26 12 47 26 47 31 0 6 3 8 6 4 4 -3 48 16 98 44
50 27 111 60 136 72 25 12 47 25 50 28 3 4 21 15 40 26 85 47 363 228 392 255
7 7 31 25 53 40 22 15 54 39 70 53 33 27 32 26 95 75 25 19 52 42 61 52 9 10
19 18 22 18 17 0 397 373 472 464 22 26 51 60 65 75 27 28 30 33 125 157 33
44 63 80 67 82 5 2 8 9 8 17 0 7 6 18 14 24 28 24 208 302 278 431 41 75 112
213 113 220 4 23 31 80 37 80 4 0 8 6 8 14 0 8 12 43 26 78 34 82 39 95 57
143 18 49 105 327 112 358 2 12 9 40 15 62 6 22 13 47 15 55 2 8 4 15 5 15 1
0 3 7 5 15 2 8 14 65 28 125 14 61 29 124 32 140 3 17 7 35 9 40 1 6 6 26 10
45 4 19 13 62 21 95 15 65 22 100 31 155 2 19 10 59 16 89 19 101 17 263 -6
361 -9 37 -62 142 -84 166 -38 40 -109 94 -125 94 -21 0 -63 -42 -86 -88 -23
-45 -104 -262 -104 -279 0 -7 -4 -13 -9 -13 -4 0 -8 -6 -8 -14 0 -7 -30 -92
-66 -187 -36 -96 -67 -181 -69 -191 -2 -9 -11 -30 -19 -47 -9 -17 -17 -34 -17
-38 -2 -13 -10 -36 -21 -63 -18 -42 -49 -134 -54 -155 -2 -11 -6 -30 -8 -43
-10 -47 -56 -132 -92 -172 -21 -23 -140 -193 -266 -378 -125 -185 -233 -345
-241 -355 -54 -67 -207 -213 -292 -277 -33 -25 -65 -50 -71 -55 -6 -6 -49 -35
-95 -65 -46 -30 -85 -58 -87 -62 -2 -5 -7 -8 -12 -8 -5 0 -41 -19 -82 -43 -87
-52 -329 -171 -448 -220 -96 -41 -270 -108 -285 -111 -5 -1 -75 -24 -155 -50
-80 -27 -152 -50 -160 -51 -8 -2 -49 -14 -90 -25 -41 -12 -82 -24 -90 -26 -8
-2 -33 -8 -55 -14 -22 -6 -51 -13 -65 -16 -14 -3 -46 -11 -72 -19 -27 -8 -48
-12 -48 -9 0 3 -8 1 -17 -5 -10 -5 -40 -12 -67 -15 -27 -4 -53 -9 -58 -12 -5
-3 -20 -7 -33 -10 -45 -8 -69 -12 -185 -33 -63 -12 -126 -23 -140 -26 -14 -3
-45 -8 -70 -11 -25 -3 -52 -7 -60 -9 -8 -2 -39 -7 -69 -10 -30 -4 -63 -9 -75
-11 -37 -7 -130 -17 -168 -18 -21 -1 -38 -3 -38 -6 0 -4 -10 -6 -22 -7 -13 0
-54 -3 -93 -7 -130 -12 -170 -15 -245 -21 -178 -12 -263 -16 -382 -18 -71 -1
-128 -5 -128 -9 0 -4 8 -14 18 -24 9 -10 15 -19 12 -20 -3 -1 6 -17 20 -36 13
-18 23 -34 22 -36 -1 -1 2 -8 8 -15 6 -6 32 -43 60 -82 27 -38 54 -75 60 -82
5 -7 10 -16 10 -22 0 -5 3 -11 8 -13 4 -1 30 -32 57 -68 28 -36 52 -67 55 -70
3 -3 37 -43 75 -90 69 -85 350 -371 415 -423 19 -15 54 -43 78 -62 24 -19 65
-49 92 -66 28 -18 48 -34 46 -37 -3 -2 -35 6 -73 19 -37 13 -70 24 -73 24 -3
1 -22 9 -44 18 -21 9 -42 17 -47 17 -9 0 -19 4 -77 33 -19 9 -38 17 -43 17
-13 0 -275 129 -344 169 -33 20 -63 36 -67 36 -4 0 -13 6 -19 13 -7 6 -19 12
-26 12 -7 0 -13 5 -13 10 0 6 -4 10 -10 10 -9 0 -149 87 -160 99 -3 3 -17 12
-32 20 -16 8 -28 18 -28 23 0 4 -4 8 -9 8 -11 0 -191 132 -225 165 -6 6 -21
18 -33 26 -38 27 -172 147 -288 259 -64 62 -208 214 -252 267 -10 12 -27 32
-38 45 -16 19 -114 143 -203 258 -11 14 -19 27 -18 30 0 3 -11 19 -27 35 -15
16 -27 35 -27 42 0 6 -3 13 -7 15 -11 5 -93 127 -93 138 0 6 -4 10 -10 10 -5
0 -10 4 -10 8 0 7 -66 124 -120 212 -45 73 -220 444 -220 466 0 7 -3 14 -7 16
-5 2 -16 26 -27 53 -35 95 -118 330 -121 345 -2 8 -4 15 -5 15 -1 0 -3 7 -5
16 -1 9 -14 57 -28 105 -14 49 -28 101 -31 116 -2 15 -7 32 -11 38 -3 5 -7 24
-10 42 -2 18 -10 62 -18 98 -8 36 -20 99 -27 140 -6 41 -13 86 -16 100 -2 14
-6 45 -9 70 -3 25 -8 63 -11 85 -22 183 -31 478 -20 680 5 86 16 221 21 255 2
14 6 48 9 76 4 28 9 61 11 75 3 13 8 40 11 59 5 30 11 64 40 210 3 14 10 43
16 65 6 22 13 47 14 55 2 8 10 39 19 67 9 29 18 58 19 65 2 7 5 20 8 28 8 21
49 143 52 155 3 10 7 22 22 60 4 11 6 23 6 28 -1 4 3 7 8 7 5 0 9 3 8 8 -3 13
14 62 38 113 13 27 24 51 24 55 0 16 184 371 220 424 33 49 32 50 -27 29 -69
-23 -184 -79 -272 -131 -34 -21 -66 -38 -69 -38 -8 0 -229 -157 -287 -204 -69
-56 -220 -192 -273 -246 -85 -87 -236 -262 -256 -299 -5 -9 -15 -20 -21 -26
-16 -13 -143 -208 -174 -265 -14 -25 -27 -47 -30 -50 -10 -8 -151 -304 -150
-313 0 -1 -5 -15 -11 -32 -29 -76 -53 -144 -65 -190 -25 -88 -54 -199 -59
-230 -6 -28 -9 -47 -21 -104 -2 -13 -7 -49 -11 -80 -3 -31 -8 -65 -10 -76 -16
-80 -24 -392 -12 -418 5 -9 5 -17 0 -17 -5 0 -8 -17 -6 -37 2 -21 6 -76 9
-123 4 -47 8 -96 10 -110 2 -14 6 -52 10 -85 3 -33 8 -71 10 -85 3 -14 8 -43
11 -65 3 -22 8 -43 11 -47 2 -5 0 -8 -5 -8 -13 0 -101 254 -117 339 -2 9 -4
17 -5 19 -2 1 -4 11 -5 22 -1 11 -4 22 -5 25 -6 12 -28 120 -36 175 -26 187
-30 283 -20 525 8 196 20 345 31 393 3 12 8 42 11 66 2 24 7 53 9 65 3 12 7
31 10 44 3 12 8 38 12 57 9 46 10 50 13 53 1 1 3 9 5 17 2 8 11 40 19 70 9 30
18 64 21 75 3 11 18 55 35 98 16 43 30 85 30 93 0 8 4 14 8 14 5 0 9 6 9 13 0
7 11 36 26 65 14 28 23 52 19 52 -4 0 -2 4 3 8 6 4 28 42 50 85 22 42 46 90
54 105 8 15 18 29 23 30 4 2 8 8 8 13 0 12 101 163 112 167 4 2 8 10 8 18 0 8
5 14 10 14 6 0 10 5 10 10 0 6 8 18 18 28 27 29 62 72 62 76 0 3 19 25 43 49
23 25 60 64 83 88 56 60 173 169 226 210 23 18 49 39 56 46 8 7 44 34 80 60
37 26 69 51 70 55 2 5 8 8 13 8 9 0 66 36 79 50 3 3 16 11 30 18 14 7 39 21
55 32 17 11 48 29 70 41 22 12 42 24 45 28 8 10 195 101 208 101 7 0 12 5 12
10 0 6 5 10 11 10 5 0 34 11 62 23 29 13 84 35 122 50 121 44 116 43 153 51
12 3 26 7 31 10 12 8 237 63 284 70 20 3 54 8 75 11 20 3 51 7 67 10 133 19
369 26 509 13 178 -15 322 -39 476 -77 72 -19 75 -19 75 -21 0 -2 8 -4 72 -20
58 -14 296 -100 308 -111 5 -5 15 -9 22 -9 11 0 37 -11 163 -68 19 -9 38 -21
42 -26 4 -6 8 -7 8 -3 0 5 46 -16 103 -46 56 -30 118 -63 137 -73 19 -11 37
-22 38 -26 2 -5 8 -8 14 -8 6 0 44 -20 85 -45 40 -25 78 -45 83 -45 4 0 10 -3
12 -8 2 -4 74 -54 161 -111 86 -58 157 -108 157 -113 0 -4 5 -8 11 -8 6 0 28
-13 48 -28 104 -80 246 -103 411 -66 68 15 172 61 234 103 55 38 59 38 41 4
-15 -30 -104 -268 -110 -293 -2 -8 -16 -49 -33 -90 -16 -41 -42 -111 -57 -155
-16 -44 -34 -91 -42 -105 -7 -14 -13 -28 -13 -32 0 -11 -63 -112 -72 -116 -4
-2 -8 -8 -8 -12 0 -8 -86 -138 -100 -150 -3 -3 -9 -13 -15 -22 -27 -48 -279
-413 -287 -416 -4 -2 -8 -8 -8 -13 0 -5 -26 -44 -57 -88 -32 -43 -65 -89 -73
-101 -8 -12 -19 -28 -25 -34 -5 -6 -37 -47 -70 -91 -81 -109 -183 -209 -240
-236 -44 -21 -64 -23 -224 -24 -97 -1 -187 2 -202 7 -14 5 -32 21 -41 36 -13
22 -57 168 -73 242 -3 15 -22 86 -51 190 -9 30 -17 62 -19 70 -2 8 -11 42 -21
75 -9 33 -19 67 -20 75 -1 8 -16 65 -33 125 -16 61 -43 160 -60 220 -16 61
-41 154 -55 208 -27 100 -63 187 -78 187 -4 0 -8 5 -8 11 0 13 -53 67 -96 97
-56 39 -120 48 -311 46 -195 -2 -200 -3 -265 -33 -46 -21 -118 -86 -118 -107
0 -7 -4 -14 -9 -16 -4 -1 -17 -31 -28 -66 -16 -55 -19 -88 -16 -240 4 -279 20
-617 38 -797 3 -27 7 -75 10 -105 3 -30 7 -73 10 -95 2 -22 7 -62 10 -90 3
-27 7 -68 10 -90 6 -47 15 -125 20 -175 3 -31 40 -287 50 -350 3 -14 7 -43 10
-65 8 -50 13 -83 20 -115 3 -14 7 -43 10 -65 5 -44 9 -62 31 -180 8 -44 17
-93 19 -110 3 -16 7 -41 10 -55 3 -14 8 -36 11 -50 2 -14 11 -56 20 -95 8 -38
20 -92 25 -120 6 -27 12 -59 15 -70 2 -11 6 -29 8 -40 2 -11 13 -59 25 -107
25 -108 32 -140 33 -155 1 -7 5 -13 10 -13 5 0 7 -4 4 -9 -3 -4 -1 -23 5 -42
5 -19 12 -41 14 -50 10 -48 69 -261 82 -299 8 -25 17 -54 19 -65 2 -11 17 -56
32 -100 26 -71 32 -80 58 -85 51 -10 405 0 559 16 22 2 67 6 100 9 33 2 80 7
105 10 25 2 70 7 100 10 30 3 66 8 80 10 14 3 45 8 70 11 47 5 72 9 130 19 19
4 51 8 70 10 19 2 71 11 115 19 44 8 94 17 110 20 17 3 73 15 125 26 52 12
106 23 119 26 38 8 129 31 211 54 41 11 82 22 90 25 39 9 208 69 232 81 23 12
26 17 18 41 -32 105 -62 200 -68 213 -3 8 -7 20 -7 25 -1 6 -5 17 -8 25 -3 8
-24 76 -47 150 -34 110 -87 279 -156 500 -4 14 -8 27 -9 30 -1 3 -15 50 -32
105 -41 129 -60 275 -41 302 5 6 5 14 -2 18 -7 4 -7 12 0 26 6 10 9 19 6 19
-2 0 0 16 6 36 5 20 11 44 13 54 5 27 57 133 72 148 7 7 13 17 13 22 0 5 6 15
13 22 14 14 102 131 127 168 8 13 24 35 36 49 20 26 155 227 164 246 3 6 39
62 81 126 42 63 78 120 80 125 2 5 56 88 120 184 64 96 124 190 133 208 23 45
84 202 90 233 3 13 7 34 10 46 2 12 30 107 61 211 31 105 58 196 59 204 2 7 6
20 9 28 10 25 77 254 82 278 2 12 7 27 10 32 3 5 8 18 10 28 1 9 15 58 30 107
26 83 36 193 23 245 -18 72 -92 157 -166 192 -38 18 -64 22 -132 21 -99 -1
-164 -21 -313 -94 -71 -34 -97 -43 -92 -31 35 84 28 252 -14 330 -6 12 -8 22
-4 22 4 0 3 4 -2 8 -6 4 -21 28 -34 55 -13 26 -28 47 -33 47 -4 0 -8 6 -8 14
0 19 -153 174 -215 218 -95 68 -351 220 -442 262 -13 6 -23 14 -23 19 0 4 -8
7 -19 7 -10 0 -24 7 -31 15 -7 8 -16 15 -20 15 -4 0 -63 26 -131 59 -195 93
-268 123 -459 193 -30 12 -64 24 -75 29 -17 7 -121 39 -147 45 -5 1 -10 3 -13
4 -3 1 -8 3 -12 5 -5 1 -15 5 -23 8 -8 4 -26 9 -40 11 -14 3 -41 10 -60 16
-19 6 -51 13 -70 16 -19 3 -42 10 -50 14 -8 4 -18 8 -23 8 -4 0 -26 4 -50 8
-23 4 -45 8 -49 8 -12 2 -21 16 -10 16 7 0 14 -1 15 -2 2 -2 10 2 18 8 14 12
123 40 125 33 0 -2 7 1 15 7 13 11 167 53 219 60 14 2 41 5 60 8 19 3 49 7 65
10 76 14 198 20 410 20 205 0 267 -3 420 -19 72 -8 298 -43 318 -50 7 -3 24
-7 40 -10 15 -3 37 -7 50 -10 12 -3 31 -7 42 -9 11 -2 40 -9 65 -16 25 -7 52
-13 60 -15 8 -2 35 -10 60 -18 42 -14 99 -29 110 -29 3 0 10 -3 15 -8 6 -4 28
-13 50 -19 67 -21 186 -66 272 -103 23 -10 44 -18 47 -18 2 0 39 -17 83 -37
43 -21 80 -38 83 -38 7 -1 146 -73 210 -108 106 -58 266 -156 338 -206 41 -28
77 -51 82 -51 5 0 10 -3 12 -8 2 -4 28 -25 58 -47 30 -22 57 -42 60 -45 3 -3
14 -13 26 -21 12 -8 45 -34 75 -59 280 -235 466 -428 661 -685 48 -65 198
-283 198 -289 0 -3 22 -42 48 -88 26 -46 72 -132 100 -193 75 -157 77 -159
106 -161 19 -1 26 4 26 17 0 17 -79 268 -97 309 -3 8 -7 17 -8 20 -1 3 -5 14
-10 25 -47 116 -61 150 -91 213 -19 41 -34 78 -34 83 0 5 -4 9 -10 9 -5 0 -10
6 -10 14 0 14 -92 184 -173 321 -95 158 -304 442 -427 579 -165 185 -330 347
-470 466 -29 25 -58 50 -64 55 -6 6 -23 19 -37 30 -14 11 -80 61 -145 110
-141 107 -298 215 -313 215 -6 0 -11 3 -11 8 0 4 -17 16 -37 27 -21 11 -40 22
-43 25 -5 5 -30 20 -80 48 -14 7 -52 29 -85 48 -81 46 -422 214 -435 214 -6 0
-18 5 -28 10 -38 22 -155 70 -171 70 -9 0 -21 4 -27 9 -8 7 -148 59 -178 66
-12 2 -40 12 -71 25 -18 8 -62 19 -82 21 -5 1 -24 7 -43 15 -38 14 -303 81
-354 89 -17 3 -53 9 -81 15 -27 6 -63 13 -80 16 -16 2 -37 7 -45 9 -8 2 -37 7
-65 10 -27 3 -63 8 -80 11 -32 5 -76 10 -165 19 -30 3 -80 8 -110 11 -61 6
-636 14 -642 9z"/>
<path d="M7787 6444 c-2 -3 -14 -7 -27 -9 -42 -8 -110 -56 -138 -98 -16 -23
-48 -96 -71 -162 -24 -66 -52 -145 -63 -175 -11 -30 -21 -59 -23 -65 -1 -5 -5
-17 -8 -25 -3 -8 -22 -62 -42 -120 -21 -58 -41 -114 -45 -125 -7 -17 -31 -88
-35 -105 -1 -3 -5 -12 -8 -20 -11 -25 -67 -184 -72 -200 -2 -8 -4 -15 -5 -15
-1 0 -3 -7 -5 -15 -2 -8 -9 -28 -16 -45 -6 -16 -14 -39 -16 -50 -9 -51 -147
-302 -233 -425 -6 -8 -29 -44 -52 -80 -23 -36 -65 -101 -93 -145 -29 -44 -58
-91 -65 -105 -7 -14 -16 -27 -20 -30 -4 -3 -18 -25 -32 -50 -14 -25 -53 -89
-87 -143 -33 -54 -61 -100 -61 -103 0 -6 -60 -96 -69 -104 -18 -16 -81 -102
-105 -143 -61 -106 -71 -189 -41 -327 4 -14 8 -36 11 -49 3 -14 7 -28 10 -33
3 -4 7 -16 9 -25 1 -10 11 -45 21 -78 9 -33 18 -67 19 -75 1 -8 10 -42 20 -75
10 -33 20 -64 21 -70 2 -5 10 -35 19 -65 9 -30 18 -66 21 -79 3 -13 16 -63 30
-110 14 -47 32 -111 40 -141 8 -30 19 -69 25 -86 5 -17 12 -42 14 -55 3 -13
13 -53 24 -89 11 -36 25 -86 32 -112 13 -46 14 -47 48 -42 19 3 46 11 60 16
14 6 29 10 34 10 4 -1 23 4 42 13 20 8 38 14 40 14 5 0 104 35 135 48 8 3 17
7 20 8 55 21 94 39 218 101 182 91 227 117 372 212 122 80 170 116 276 209 16
14 70 80 122 148 30 39 91 134 183 285 60 96 112 180 118 186 5 7 7 15 4 18
-4 3 -1 6 5 6 7 0 12 6 12 13 0 6 11 25 25 41 14 16 25 35 25 42 0 7 4 14 8
16 25 10 137 214 145 263 1 11 6 26 10 33 5 6 6 12 3 12 -2 0 14 51 36 113 22
61 44 128 50 147 5 19 14 40 19 46 5 6 10 19 12 30 2 10 10 33 17 49 7 17 18
48 25 70 8 22 34 96 60 165 26 69 59 161 75 205 16 44 43 118 60 165 92 244
88 383 -16 487 -31 31 -216 140 -252 148 -9 3 -33 8 -52 13 -93 22 -165 -12
-205 -96 -14 -29 -25 -55 -25 -57 0 -3 -10 -27 -21 -53 -42 -93 -49 -110 -49
-117 0 -3 -8 -25 -19 -48 -21 -47 -166 -397 -218 -527 -19 -47 -40 -98 -47
-115 -33 -72 -106 -264 -117 -309 -9 -38 -74 -153 -99 -176 -3 -3 -25 -34 -50
-70 -24 -36 -48 -66 -52 -68 -4 -2 -8 -8 -8 -13 0 -6 -25 -44 -55 -84 -30 -41
-55 -77 -55 -80 0 -3 -11 -18 -25 -33 -14 -15 -25 -32 -25 -39 0 -7 -4 -13
-10 -13 -5 0 -10 -6 -10 -14 0 -8 -7 -16 -15 -20 -8 -3 -15 -10 -15 -17 0 -6
-10 -24 -22 -39 -34 -42 -46 -59 -128 -179 -41 -60 -83 -111 -92 -114 -18 -5
-80 23 -112 52 -10 9 -24 28 -32 43 -13 25 -11 31 34 100 27 40 66 102 87 138
21 36 41 67 45 70 3 3 30 46 60 95 30 50 58 95 62 100 5 6 45 69 89 140 45 72
108 171 140 222 59 91 150 265 164 313 4 14 11 27 15 30 3 3 35 77 69 165 35
88 71 178 81 200 9 22 57 141 106 265 49 124 92 228 97 231 5 3 8 8 6 10 -3 5
22 82 31 94 4 6 13 28 20 50 7 22 16 45 20 50 4 6 13 28 20 50 7 22 20 50 28
63 8 12 12 22 9 22 -3 0 0 19 7 43 7 23 11 56 10 72 -6 58 -15 95 -25 95 -6 0
-8 4 -5 9 11 17 -59 99 -154 180 -44 38 -163 96 -215 106 -55 10 -113 14 -118
9z"/>
</g>
</svg>
