<?xml version="1.0" encoding="utf-8"?>
<!-- Generator: Adobe Illustrator 22.1.0, SVG Export Plug-In . SVG Version: 6.00 Build 0)  -->
<svg version="1.1" id="Слой_1" xmlns="http://www.w3.org/2000/svg" xmlns:xlink="http://www.w3.org/1999/xlink" x="0px" y="0px"
	 viewBox="0 0 27 16" style="enable-background:new 0 0 27 16;" xml:space="preserve">
<style type="text/css">
	.st0{enable-background:new    ;}
	.st1{fill:#212121;}
</style>
<g>
	<g>
		<path d="M13.3,15.2c-6.7,0-11.5-1.1-12.9-2.8c-0.4-0.5-0.5-1.1-0.4-1.6c0.1-0.5,0.7-0.8,1.2-0.7c0.5,0.1,0.8,0.6,0.7,1.1
			c0.4,0.5,3.1,2,11.3,2c8.1,0,10.8-1.8,11.1-2.2c0-0.5,0.4-0.9,1-0.9c0.5,0,1,0.4,1,1c0,0.4-0.1,0.9-0.7,1.5
			C24.9,13.3,22.1,15.2,13.3,15.2z"/>
	</g>
	<g class="st0">
		<path class="st1" d="M6,6.7l1.1-0.1c0.1,0.6,0.3,1,0.6,1.3s0.6,0.4,1.1,0.4c0.5,0,0.9-0.2,1.3-0.5s0.5-0.8,0.5-1.3
			c0-0.5-0.2-0.9-0.5-1.2S9.3,4.8,8.9,4.8c-0.2,0-0.4,0-0.7,0.1L8.2,4c0.1,0,0.1,0,0.2,0c0.4,0,0.9-0.1,1.2-0.4s0.5-0.6,0.5-1.1
			c0-0.4-0.1-0.7-0.4-1s-0.6-0.4-1-0.4c-0.4,0-0.8,0.1-1,0.4S7.3,2.3,7.2,2.8L6.1,2.6C6.3,1.9,6.6,1.3,7,1s1-0.6,1.7-0.6
			c0.5,0,0.9,0.1,1.3,0.3s0.7,0.5,0.9,0.8s0.3,0.7,0.3,1.1c0,0.4-0.1,0.7-0.3,1S10.4,4.2,10,4.3c0.5,0.1,0.9,0.4,1.2,0.7
			s0.4,0.8,0.4,1.4c0,0.8-0.3,1.4-0.8,1.9S9.6,9.2,8.8,9.2C8,9.2,7.4,8.9,6.9,8.5S6.1,7.4,6,6.7z"/>
		<path class="st1" d="M13.1,9V0.4h3c0.7,0,1.2,0,1.5,0.1c0.5,0.1,0.9,0.3,1.3,0.6c0.5,0.4,0.8,0.9,1,1.5s0.3,1.3,0.3,2
			c0,0.7-0.1,1.2-0.2,1.7s-0.3,0.9-0.6,1.3s-0.5,0.6-0.8,0.8s-0.6,0.3-1,0.4S16.7,9,16.2,9H13.1z M14.3,8h1.8c0.6,0,1-0.1,1.3-0.2
			s0.6-0.3,0.8-0.4c0.3-0.3,0.5-0.6,0.6-1.1s0.2-1,0.2-1.7c0-0.9-0.1-1.6-0.4-2.1s-0.7-0.8-1.1-1c-0.3-0.1-0.8-0.2-1.5-0.2h-1.8V8z"
			/>
	</g>
</g>
</svg>
