<?xml version="1.0" encoding="utf-8"?>
<!-- Generator: Adobe Illustrator 22.1.0, SVG Export Plug-In . SVG Version: 6.00 Build 0)  -->
<svg version="1.1" id="Слой_1" xmlns="http://www.w3.org/2000/svg" xmlns:xlink="http://www.w3.org/1999/xlink" x="0px" y="0px"
	 viewBox="0 0 18.9 14.8" style="enable-background:new 0 0 18.9 14.8;" xml:space="preserve">
<path d="M18.8,7.8c0,0.1-0.1,0.2-0.2,0.3l-6.6,6.5c-0.3,0.3-0.9,0.3-1.2,0c-0.3-0.3-0.3-0.9,0-1.2l0,0l5.2-5.2H0.8
	C0.3,8.2,0,7.9,0,7.4C0,7,0.4,6.6,0.8,6.6h15.3l-5.2-5.2c-0.3-0.3-0.3-0.9,0-1.2s0.9-0.3,1.2,0l6.5,6.5c0.1,0.1,0.1,0.2,0.2,0.3
	c0,0.1,0.1,0.2,0.1,0.3C18.9,7.5,18.9,7.7,18.8,7.8z"/>
</svg>
