<?xml version="1.0" encoding="utf-8"?>
<!-- Generator: Adobe Illustrator 22.1.0, SVG Export Plug-In . SVG Version: 6.00 Build 0)  -->
<svg version="1.1" id="Слой_1" xmlns="http://www.w3.org/2000/svg" xmlns:xlink="http://www.w3.org/1999/xlink" x="0px" y="0px"
	 viewBox="0 0 18.9 14.8" style="enable-background:new 0 0 18.9 14.8;" xml:space="preserve">
<g>
	<path d="M0.1,7c0-0.1,0.1-0.2,0.2-0.3l6.6-6.5c0.3-0.3,0.9-0.3,1.2,0s0.3,0.9,0,1.2l0,0L2.9,6.6h15.2c0.5,0,0.8,0.3,0.8,0.8
		c0,0.4-0.4,0.8-0.8,0.8H2.8L8,13.4c0.3,0.3,0.3,0.9,0,1.2s-0.9,0.3-1.2,0L0.3,8.1C0.2,8,0.2,7.9,0.1,7.8C0.1,7.7,0,7.6,0,7.5
		C0,7.3,0,7.1,0.1,7z"/>
</g>
</svg>
