<?xml version="1.0" encoding="utf-8"?>
<!-- Generator: Adobe Illustrator 22.1.0, SVG Export Plug-In . SVG Version: 6.00 Build 0)  -->
<svg version="1.1" id="Слой_1" xmlns="http://www.w3.org/2000/svg" xmlns:xlink="http://www.w3.org/1999/xlink" x="0px" y="0px"
	 viewBox="0 0 53 33" style="enable-background:new 0 0 53 33;" xml:space="preserve">
<style type="text/css">
	.st0{fill:#2ECB6B;}
</style>
<g transform="translate(1 2)">
	<g>
		<path class="st0" d="M15.7,10.6c-7.6,0-15.3-2-15.3-5.9s7.7-5.9,15.3-5.9s15.3,2,15.3,5.9S23.2,10.6,15.7,10.6z M15.7,1.3
			C7.8,1.3,2.9,3.5,2.9,4.7s4.8,3.4,12.8,3.4s12.8-2.2,12.8-3.4S23.6,1.3,15.7,1.3z"/>
	</g>
	<g>
		<path class="st0" d="M48.4,29.5c-1,0-2.2-0.3-3.5-0.9c-2.3-1-4.8-2.9-7.1-5.3c-4.5-4.6-7.5-10.7-4.7-13.4
			c2.8-2.7,8.8,0.6,13.3,5.2c2.3,2.4,4.1,5,5,7.3c1.1,2.7,1,4.9-0.3,6.1C50.3,29.2,49.4,29.5,48.4,29.5z M35.6,11.4
			c-0.4,0-0.7,0.1-0.9,0.3c-1,0.9,0.4,5.4,4.8,9.9c2.1,2.1,4.3,3.8,6.4,4.7c1.9,0.9,3,0.8,3.4,0.4c0.4-0.3,0.5-1.4-0.3-3.4
			c-0.8-2.1-2.4-4.4-4.5-6.5l0,0C40.8,13.2,37.3,11.4,35.6,11.4z"/>
	</g>
	<g>
		<path class="st0" d="M15.8,30.1c-7.2,0-12.7-1.4-14.6-3.8c-0.8-1-0.8-1.9-0.7-2.5c0.1-0.7,0.8-1.1,1.5-1c0.7,0.1,1.1,0.8,1,1.5
			c0,0.1,0,0.2,0.2,0.4c0.9,1.1,4.5,2.9,12.7,2.9c9.5,0,12.6-2.8,12.7-3.6c0-0.7,0.6-1.2,1.3-1.2c0,0,0,0,0,0c0.7,0,1.2,0.5,1.2,1.2
			c0,0.6-0.2,1.5-1.1,2.5C28.7,27.5,25.2,30.1,15.8,30.1z M14.8,23.4c-7.2,0-12.7-1.4-14.6-3.8c-0.8-1-0.8-1.9-0.7-2.5
			c0.1-0.7,0.8-1.1,1.5-1c0.7,0.1,1.1,0.8,1,1.5c0,0.1,0,0.2,0.2,0.4c0.9,1.1,4.5,2.9,12.7,2.9c9.5,0,12.6-2.8,12.7-3.6
			c0-0.7,0.6-1.2,1.3-1.2c0,0,0,0,0,0c0.7,0,1.2,0.5,1.2,1.2c0,0.6-0.2,1.5-1.1,2.5C27.7,20.9,24.2,23.4,14.8,23.4z M15.1,16.8
			c-7.2,0-12.7-1.4-14.6-3.8c-0.8-1-0.8-1.9-0.7-2.5c0.1-0.7,0.8-1.1,1.5-1c0.7,0.1,1.1,0.8,1,1.5c0,0.1,0,0.2,0.2,0.4
			c0.9,1.1,4.5,2.9,12.7,2.9c9.5,0,12.6-2.8,12.7-3.6c0-0.7,0.6-1.2,1.3-1.2c0,0,0,0,0,0c0.7,0,1.2,0.5,1.2,1.2
			c0,0.6-0.2,1.5-1.1,2.5C28.1,14.2,24.5,16.8,15.1,16.8z"/>
	</g>
</g>
</svg>
