<?xml version="1.0" encoding="utf-8"?>
<!-- Generator: Adobe Illustrator 22.1.0, SVG Export Plug-In . SVG Version: 6.00 Build 0)  -->
<svg version="1.1" id="Слой_1" xmlns="http://www.w3.org/2000/svg" xmlns:xlink="http://www.w3.org/1999/xlink" x="0px" y="0px"
	 viewBox="0 0 22 20" style="enable-background:new 0 0 22 20;" xml:space="preserve">
<style type="text/css">
	.st0{fill:#2ECB6B;}
</style>
<g>
	<g>
		<path class="st0" d="M21,20h-4c-0.6,0-1-0.4-1-1V6c0-0.6,0.4-1,1-1h4c0.6,0,1,0.4,1,1v13C22,19.6,21.6,20,21,20z M18,18h2V7h-2V18
			z M13,20H9c-0.6,0-1-0.4-1-1V1c0-0.6,0.4-1,1-1h4c0.6,0,1,0.4,1,1v18C14,19.6,13.6,20,13,20z M10,18h2V2h-2V18z M5,20H1
			c-0.6,0-1-0.4-1-1v-8c0-0.6,0.4-1,1-1h4c0.6,0,1,0.4,1,1v8C6,19.6,5.6,20,5,20z M2,18h2v-6H2V18z"/>
	</g>
</g>
</svg>
