<?xml version="1.0" encoding="utf-8"?>
<!-- Generator: Adobe Illustrator 22.1.0, SVG Export Plug-In . SVG Version: 6.00 Build 0)  -->
<svg version="1.1" id="Слой_1" xmlns="http://www.w3.org/2000/svg" xmlns:xlink="http://www.w3.org/1999/xlink" x="0px" y="0px"
	 viewBox="0 0 24 18" style="enable-background:new 0 0 24 18;" xml:space="preserve">
<g transform="translate(1 1)">
	<g>
		<path d="M11,17C3.5,17-0.7,8.8-0.9,8.4C-1,8.2-1,7.8-0.9,7.6C-0.7,7.2,3.5-1,11-1s11.7,8.2,11.9,8.6c0.1,0.3,0.1,0.6,0,0.9
			C22.7,8.8,18.5,17,11,17z M1.1,8c0.9,1.6,4.5,7,9.9,7c5.4,0,8.9-5.4,9.9-7c-0.9-1.6-4.5-7-9.9-7C5.6,1,2.1,6.4,1.1,8z"/>
	</g>
	<g>
		<path d="M11,12c-2.2,0-4-1.8-4-4c0-2.2,1.8-4,4-4c2.2,0,4,1.8,4,4C15,10.2,13.2,12,11,12z M11,6C9.9,6,9,6.9,9,8c0,1.1,0.9,2,2,2
			c1.1,0,2-0.9,2-2C13,6.9,12.1,6,11,6z"/>
	</g>
</g>
</svg>
