<?xml version="1.0" encoding="utf-8"?>
<!-- Generator: Adobe Illustrator 22.1.0, SVG Export Plug-In . SVG Version: 6.00 Build 0)  -->
<svg version="1.1" id="Слой_1" xmlns="http://www.w3.org/2000/svg" xmlns:xlink="http://www.w3.org/1999/xlink" x="0px" y="0px"
	 viewBox="0 0 35 35" style="enable-background:new 0 0 35 35;" xml:space="preserve">
<style type="text/css">
	.st0{fill:#2ECB6B;}
</style>
<g>
	<g>
		<path class="st0" d="M2,34.3c-0.3,0-0.6-0.1-0.9-0.4c-0.5-0.5-0.5-1.3,0-1.8l4.3-4.3V14.9c0-0.3,0.1-0.6,0.4-0.9L16.4,3.4
			c4.2-4.2,10.9-4.2,15.1,0c2,2,3.1,4.7,3.1,7.6c0,2.9-1.1,5.5-3.1,7.6L21,29.2c-0.2,0.2-0.6,0.4-0.9,0.4H7.2l-4.3,4.3
			C2.6,34.1,2.3,34.3,2,34.3z M9.7,27h9.8l3.8-3.8h-9.8L9.7,27z M8,15.4v9.8l15.2-15.2c0.5-0.5,1.3-0.5,1.8,0s0.5,1.3,0,1.8L16,20.8
			h9.6c0.1,0,0.2,0,0.2,0l4-4c0,0,0,0,0,0c1.5-1.5,2.4-3.6,2.4-5.8c0-2.2-0.9-4.2-2.4-5.8C26.6,2,21.4,2,18.2,5.2L8,15.4z"/>
	</g>
</g>
</svg>
