<?xml version="1.0" encoding="utf-8"?>
<!-- Generator: Adobe Illustrator 22.1.0, SVG Export Plug-In . SVG Version: 6.00 Build 0)  -->
<svg version="1.1" id="Слой_1" xmlns="http://www.w3.org/2000/svg" xmlns:xlink="http://www.w3.org/1999/xlink" x="0px" y="0px"
	 viewBox="0 0 29 35" style="enable-background:new 0 0 29 35;" xml:space="preserve">
<style type="text/css">
	.st0{fill:#2ECB6B;}
</style>
<g>
	<g>
		<path class="st0" d="M23.7,34.3H5.1c-2.4,0-4.4-2-4.4-4.3V5.1c0-2.4,2-4.4,4.4-4.4h12.4c0.3,0,0.6,0.1,0.9,0.4l9.3,9.3
			c0.2,0.2,0.4,0.6,0.4,0.9v18.6C28,32.3,26.1,34.3,23.7,34.3z M5.1,3.3c-1,0-1.9,0.8-1.9,1.9v24.8c0,1,0.8,1.8,1.9,1.8h18.6
			c1,0,1.8-0.8,1.8-1.8V11.8L17,3.3H5.1z"/>
	</g>
	<g>
		<path class="st0" d="M20.6,26.5H8.2c-0.7,0-1.3-0.6-1.3-1.3S7.5,24,8.2,24h12.4c0.7,0,1.3,0.6,1.3,1.3S21.3,26.5,20.6,26.5z
			 M20.6,20.3H8.2C7.5,20.3,7,19.7,7,19s0.6-1.3,1.3-1.3h12.4c0.7,0,1.3,0.6,1.3,1.3S21.3,20.3,20.6,20.3z M11.3,14.1H8.2
			c-0.7,0-1.3-0.6-1.3-1.3s0.6-1.3,1.3-1.3h3.1c0.7,0,1.3,0.6,1.3,1.3S12,14.1,11.3,14.1z M26.8,12.5h-9.3c-0.7,0-1.3-0.6-1.3-1.3V2
			c0-0.7,0.6-1.3,1.3-1.3s1.3,0.6,1.3,1.3v8h8c0.7,0,1.3,0.6,1.3,1.3S27.5,12.5,26.8,12.5z"/>
	</g>
</g>
</svg>
