<?xml version="1.0" encoding="utf-8"?>
<!-- Generator: Adobe Illustrator 22.1.0, SVG Export Plug-In . SVG Version: 6.00 Build 0)  -->
<svg version="1.1" id="Слой_1" xmlns="http://www.w3.org/2000/svg" xmlns:xlink="http://www.w3.org/1999/xlink" x="0px" y="0px"
	 viewBox="0 0 20 20" style="enable-background:new 0 0 20 20;" xml:space="preserve">
<style type="text/css">
	.st0{fill:#434350;}
</style>
<g>
	<g>
		<path class="st0" d="M19,20h-7c-0.6,0-1-0.4-1-1v-7c0-0.6,0.4-1,1-1h7c0.6,0,1,0.4,1,1v7C20,19.6,19.6,20,19,20z M13,18h5v-5h-5
			V18z M8,20H1c-0.6,0-1-0.4-1-1v-7c0-0.6,0.4-1,1-1h7c0.6,0,1,0.4,1,1v7C9,19.6,8.6,20,8,20z M2,18h5v-5H2V18z M19,9h-7
			c-0.6,0-1-0.4-1-1V1c0-0.6,0.4-1,1-1h7c0.6,0,1,0.4,1,1v7C20,8.6,19.6,9,19,9z M13,7h5V2h-5V7z M8,9H1C0.4,9,0,8.6,0,8V1
			c0-0.6,0.4-1,1-1h7c0.6,0,1,0.4,1,1v7C9,8.6,8.6,9,8,9z M2,7h5V2H2V7z"/>
	</g>
</g>
</svg>
