<?xml version="1.0" encoding="utf-8"?>
<!-- Generator: Adobe Illustrator 22.1.0, SVG Export Plug-In . SVG Version: 6.00 Build 0)  -->
<svg version="1.1" id="Слой_1" xmlns="http://www.w3.org/2000/svg" xmlns:xlink="http://www.w3.org/1999/xlink" x="0px" y="0px"
	 viewBox="0 0 24 21" style="enable-background:new 0 0 24 21;" xml:space="preserve">
<style type="text/css">
	.st0{fill:#2ECB6B;}
</style>
<g>
	<path class="st0" d="M12,20.2c-0.3,0-0.5-0.1-0.7-0.3l-8.8-8.8C1.2,9.9,0.5,8.2,0.5,6.5s0.7-3.4,1.9-4.6S5.3,0,7,0
		c1.7,0,3.4,0.7,4.6,1.9L12,2.3l0.4-0.4c0,0,0,0,0,0C13.6,0.7,15.2,0,17,0h0c1.7,0,3.4,0.7,4.6,1.9l0,0c2.5,2.5,2.5,6.7,0,9.2
		l-8.8,8.8C12.5,20.1,12.3,20.2,12,20.2z M7,2C5.9,2,4.7,2.4,3.9,3.3c-1.8,1.8-1.8,4.6,0,6.4l8.1,8.1l8.1-8.1c0.9-0.9,1.3-2,1.3-3.2
		c0-1.2-0.5-2.3-1.3-3.2l0,0C19.3,2.5,18.2,2,17,2c0,0,0,0,0,0c-1.2,0-2.3,0.5-3.2,1.3l0,0c0,0,0,0,0,0l-1,1.1c-0.4,0.4-1,0.4-1.4,0
		l-1.1-1.1C9.4,2.4,8.2,2,7,2z"/>
</g>
</svg>
