<?xml version="1.0" encoding="utf-8"?>
<!-- Generator: Adobe Illustrator 22.1.0, SVG Export Plug-In . SVG Version: 6.00 Build 0)  -->
<svg version="1.1" id="Слой_1" xmlns="http://www.w3.org/2000/svg" xmlns:xlink="http://www.w3.org/1999/xlink" x="0px" y="0px"
	 viewBox="0 0 32 35" style="enable-background:new 0 0 32 35;" xml:space="preserve">
<style type="text/css">
	.st0{fill:#2ECB6B;}
</style>
<g>
	<g>
		<path class="st0" d="M26.8,34.3H5.1c-2.4,0-4.4-2-4.4-4.3V12.9c0-0.4,0.2-0.8,0.5-1L15.2,1c0.5-0.4,1.1-0.4,1.5,0l14,10.9
			c0.3,0.2,0.5,0.6,0.5,1v17.1C31.2,32.3,29.2,34.3,26.8,34.3z M3.3,13.5v16.4c0,1,0.8,1.8,1.9,1.8h21.7c1,0,1.9-0.8,1.9-1.8V13.5
			L16,3.6L3.3,13.5z"/>
	</g>
	<g>
		<path class="st0" d="M20.6,34.3c-0.7,0-1.3-0.6-1.3-1.3V18.8h-6.8V33c0,0.7-0.6,1.3-1.3,1.3S10,33.7,10,33V17.5
			c0-0.7,0.6-1.3,1.3-1.3h9.3c0.7,0,1.3,0.6,1.3,1.3V33C21.8,33.7,21.3,34.3,20.6,34.3z"/>
	</g>
</g>
</svg>
