<?xml version="1.0" encoding="utf-8"?>
<!-- Generator: Adobe Illustrator 22.1.0, SVG Export Plug-In . SVG Version: 6.00 Build 0)  -->
<svg version="1.1" id="Слой_1" xmlns="http://www.w3.org/2000/svg" xmlns:xlink="http://www.w3.org/1999/xlink" x="0px" y="0px"
	 viewBox="0 0 34 34" style="enable-background:new 0 0 34 34;" xml:space="preserve">
<style type="text/css">
	.st0{fill:#2ECB6B;}
</style>
<g transform="translate(2 2)">
	<g>
		<path class="st0" d="M28,31.3H2c-1.8,0-3.3-1.5-3.3-3.3V2c0-1.8,1.5-3.3,3.3-3.3h26c1.8,0,3.3,1.5,3.3,3.3v26
			C31.3,29.8,29.8,31.3,28,31.3z M2,1.3C1.6,1.3,1.3,1.6,1.3,2v26c0,0.4,0.3,0.8,0.8,0.8h26c0.4,0,0.8-0.3,0.8-0.8V2
			c0-0.4-0.3-0.8-0.8-0.8H2z"/>
	</g>
	<g>
		<path class="st0" d="M9.2,12.9c-2.1,0-3.8-1.7-3.8-3.8s1.7-3.8,3.8-3.8s3.8,1.7,3.8,3.8S11.2,12.9,9.2,12.9z M9.2,7.9
			c-0.7,0-1.3,0.6-1.3,1.3s0.6,1.3,1.3,1.3s1.3-0.6,1.3-1.3S9.9,7.9,9.2,7.9z"/>
	</g>
	<g>
		<path class="st0" d="M3.3,31.3c-0.3,0-0.6-0.1-0.9-0.4c-0.5-0.5-0.5-1.3,0-1.8l18.3-18.3c0.5-0.5,1.3-0.5,1.8,0l8.3,8.3
			c0.5,0.5,0.5,1.3,0,1.8s-1.3,0.5-1.8,0l-7.4-7.4L4.2,30.9C4,31.1,3.7,31.3,3.3,31.3z"/>
	</g>
</g>
</svg>
