<?xml version="1.0" encoding="utf-8"?>
<!-- Generator: Adobe Illustrator 22.1.0, SVG Export Plug-In . SVG Version: 6.00 Build 0)  -->
<svg version="1.1" id="Слой_1" xmlns="http://www.w3.org/2000/svg" xmlns:xlink="http://www.w3.org/1999/xlink" x="0px" y="0px"
	 viewBox="0 0 22 18" style="enable-background:new 0 0 22 18;" xml:space="preserve">
<style type="text/css">
	.st0{opacity:0.4;}
	.st1{fill:#434350;}
</style>
<g class="st0">
	<g>
		<path class="st1" d="M21,18H6c-0.6,0-1-0.4-1-1s0.4-1,1-1h15c0.6,0,1,0.4,1,1S21.6,18,21,18z M21,10H6c-0.6,0-1-0.4-1-1s0.4-1,1-1
			h15c0.6,0,1,0.4,1,1S21.6,10,21,10z M21,2H6C5.4,2,5,1.6,5,1s0.4-1,1-1h15c0.6,0,1,0.4,1,1S21.6,2,21,2z"/>
	</g>
	<g>
		<circle class="st1" cx="1" cy="1" r="1"/>
	</g>
	<g>
		<circle class="st1" cx="1" cy="9" r="1"/>
	</g>
	<g>
		<circle class="st1" cx="1" cy="17" r="1"/>
	</g>
</g>
</svg>
