<?xml version="1.0" encoding="utf-8"?>
<!-- Generator: Adobe Illustrator 22.1.0, SVG Export Plug-In . SVG Version: 6.00 Build 0)  -->
<svg version="1.1" id="Слой_1" xmlns="http://www.w3.org/2000/svg" xmlns:xlink="http://www.w3.org/1999/xlink" x="0px" y="0px"
	 viewBox="0 0 20 24" style="enable-background:new 0 0 20 24;" xml:space="preserve">
<style type="text/css">
	.st0{fill:#434350;}
</style>
<g transform="translate(1 1)">
	<g>
		<path class="st0" d="M9,23c-0.2,0-0.4-0.1-0.6-0.2C8.1,22.6-1,16.4-1,9C-1,3.5,3.5-1,9-1c5.5,0,10,4.5,10,10
			c0,7.4-9.1,13.6-9.4,13.8C9.4,22.9,9.2,23,9,23z M9,1C4.6,1,1,4.6,1,9c0,5.4,6.1,10.4,8,11.8c1.9-1.4,8-6.4,8-11.8
			C17,4.6,13.4,1,9,1z"/>
	</g>
	<g>
		<path class="st0" d="M9,13c-2.2,0-4-1.8-4-4s1.8-4,4-4c2.2,0,4,1.8,4,4S11.2,13,9,13z M9,7C7.9,7,7,7.9,7,9s0.9,2,2,2
			c1.1,0,2-0.9,2-2S10.1,7,9,7z"/>
	</g>
</g>
</svg>
