<?xml version="1.0" encoding="utf-8"?>
<!-- Generator: Adobe Illustrator 22.1.0, SVG Export Plug-In . SVG Version: 6.00 Build 0)  -->
<svg version="1.1" id="Слой_1" xmlns="http://www.w3.org/2000/svg" xmlns:xlink="http://www.w3.org/1999/xlink" x="0px" y="0px"
	 viewBox="0 0 24 22" style="enable-background:new 0 0 24 22;" xml:space="preserve">
<style type="text/css">
	.st0{fill:#434350;}
</style>
<g>
	<g>
		<path class="st0" d="M16,22c-0.2,0-0.3,0-0.5-0.1L8,18.1l-6.5,3.7c-0.3,0.2-0.7,0.2-1,0C0.2,21.7,0,21.4,0,21V5
			c0-0.4,0.2-0.7,0.5-0.9l7-4c0.3-0.2,0.7-0.2,1,0L16,3.9l6.5-3.7c0.3-0.2,0.7-0.2,1,0C23.8,0.3,24,0.6,24,1v16
			c0,0.4-0.2,0.7-0.5,0.9l-7,4C16.4,21.9,16.2,22,16,22z M9,16.4l6,3V5.6l-6-3V16.4z M17,5.6v13.7l5-2.9V2.7L17,5.6z M2,5.6v13.7
			l5-2.9V2.7L2,5.6z"/>
	</g>
</g>
</svg>
