<?xml version="1.0" encoding="utf-8"?>
<!-- Generator: Adobe Illustrator 22.1.0, SVG Export Plug-In . SVG Version: 6.00 Build 0)  -->
<svg version="1.1" id="Слой_1" xmlns="http://www.w3.org/2000/svg" xmlns:xlink="http://www.w3.org/1999/xlink" x="0px" y="0px"
	 viewBox="0 0 15 15" style="enable-background:new 0 0 15 15;" xml:space="preserve">
<path d="M13.8,13.8c-0.4,0.4-1,0.4-1.4,0c0,0,0,0,0,0l-2.9-2.9c-2.3,1.7-5.6,1.5-7.7-0.6c-2.3-2.4-2.3-6.2,0.1-8.5
	c2.3-2.3,6.1-2.3,8.4,0c2.1,2.1,2.3,5.4,0.6,7.7l2.9,2.9C14.2,12.7,14.2,13.4,13.8,13.8C13.8,13.8,13.8,13.8,13.8,13.8z M8.8,3.2
	c-1.6-1.6-4.1-1.6-5.7,0c0,0,0,0,0,0C1.6,4.7,1.5,7.2,3.1,8.8s4.1,1.6,5.7,0.1c0,0,0,0,0.1-0.1C10.4,7.2,10.4,4.7,8.8,3.2z"/>
</svg>
