<?xml version="1.0" encoding="utf-8"?>
<!-- Generator: Adobe Illustrator 22.1.0, SVG Export Plug-In . SVG Version: 6.00 Build 0)  -->
<svg version="1.1" id="Слой_1" xmlns="http://www.w3.org/2000/svg" xmlns:xlink="http://www.w3.org/1999/xlink" x="0px" y="0px"
	 viewBox="0 0 30 30" style="enable-background:new 0 0 30 30;" xml:space="preserve">
<style type="text/css">
	.st0{fill:#020202;}
</style>
<path class="st0" d="M24.5,19.1c-1.8,0-3.3,0.8-4.3,2.1l-9.4-4.7C10.9,16,11,15.5,11,15c0-0.5-0.1-1-0.3-1.5l9.3-4.7
	c1,1.4,2.7,2.2,4.4,2.2c3,0,5.5-2.4,5.5-5.5c0-3-2.5-5.5-5.5-5.5c-3,0-5.5,2.4-5.5,5.5c0,0.5,0.1,1,0.2,1.4l-9.4,4.7
	c-1-1.3-2.6-2.1-4.3-2.1C2.5,9.5,0,12,0,15s2.5,5.5,5.5,5.5c1.7,0,3.4-0.8,4.4-2.2l9.3,4.7c-0.1,0.5-0.3,1-0.3,1.5
	c0,3,2.5,5.5,5.5,5.5c3,0,5.5-2.4,5.5-5.5C30,21.5,27.5,19.1,24.5,19.1L24.5,19.1z"/>
</svg>
