<?xml version="1.0" encoding="utf-8"?>
<!-- Generator: Adobe Illustrator 22.1.0, SVG Export Plug-In . SVG Version: 6.00 Build 0)  -->
<svg version="1.1" id="Слой_1" xmlns="http://www.w3.org/2000/svg" xmlns:xlink="http://www.w3.org/1999/xlink" x="0px" y="0px"
	 viewBox="0 0 19 20" style="enable-background:new 0 0 19 20;" xml:space="preserve">
<style type="text/css">
	.st0{fill:#9FA3A7;}
</style>
<g>
	<path class="st0" d="M9.2,19.6c-0.4,0-0.8-0.1-1.2-0.3l-6.5-3.3C0.5,15.6,0,14.7,0,13.7V5.9c0-1,0.6-1.9,1.5-2.4L8,0.3
		c0.7-0.4,1.6-0.4,2.3,0c0,0,0,0,0,0l6.5,3.3c0.9,0.4,1.5,1.4,1.5,2.4v7.8c0,1-0.6,1.9-1.5,2.4l-6.5,3.3C10,19.5,9.6,19.6,9.2,19.6z
		 M2,6.5v7.2c0,0.3,0.1,0.5,0.4,0.6l5.8,2.9V9.6L2,6.5z M10.2,9.6v7.6l5.8-2.9c0.2-0.1,0.4-0.3,0.4-0.6V6.5L10.2,9.6z M3.2,4.9
		l5.9,3l5.9-3L9.5,2.1C9.3,2,9.1,2,8.9,2.1L3.2,4.9z"/>
</g>
</svg>
