<?xml version="1.0" encoding="utf-8"?>
<!-- Generator: Adobe Illustrator 22.1.0, SVG Export Plug-In . SVG Version: 6.00 Build 0)  -->
<svg version="1.1" id="Слой_1" xmlns="http://www.w3.org/2000/svg" xmlns:xlink="http://www.w3.org/1999/xlink" x="0px" y="0px"
	 viewBox="0 0 20 24" style="enable-background:new 0 0 20 24;" xml:space="preserve">
<style type="text/css">
	.st0{fill:#434350;}
</style>
<g>
	<g>
		<path class="st0" d="M10,24c-0.2,0-0.4-0.1-0.6-0.2C9.1,23.6,0,17.4,0,10C0,4.5,4.5,0,10,0c5.5,0,10,4.5,10,10
			c0,7.4-9.1,13.6-9.4,13.8C10.4,23.9,10.2,24,10,24z M10,2c-4.4,0-8,3.6-8,8c0,5.4,6.1,10.4,8,11.8c1.9-1.4,8-6.4,8-11.8
			C18,5.6,14.4,2,10,2z"/>
	</g>
	<g>
		<path class="st0" d="M4.7,14.3L4.7,14.3c0.4-0.4,0.6-0.9,0.7-1.8l0.3-4.7c0-0.7-0.1-1.6-0.6-1.9l0,0h2.7C7.7,6.2,7.7,6.6,8,7.1
			l1.2,2c0.4,0.6,0.6,1.3,0.7,2h0c0.2-0.7,0.5-1.3,0.9-2l1.2-2.1c0.3-0.5,0.3-0.9,0.2-1.1H15l0,0c-0.5,0.3-0.7,1.2-0.7,1.9l0.4,4.7
			c0,0.6,0.3,1.3,0.7,1.7l0,0h-2.7l0,0c0.2-0.2,0.5-0.7,0.4-1.5l-0.2-2.5c0-0.6,0-1.2,0.1-2.1h0c-0.3,0.8-0.5,1.4-0.9,2l-1.3,2.3
			c-0.4,0.7-0.5,1.2-0.6,1.5H10c0-0.3-0.2-0.7-0.6-1.4l-1.4-2.3c-0.4-0.6-0.6-1.2-0.9-2h0c0.1,0.9,0.1,1.5,0.1,2.1L7,12.8
			c0,0.8,0.2,1.3,0.4,1.5l0,0H4.7z"/>
	</g>
</g>
</svg>
