<svg xmlns="http://www.w3.org/2000/svg" width="14" height="12" viewBox="0 0 14 12">
    <path fill="#D34B55" fill-rule="evenodd" d="M11.724 1.503C10.504.355 9.346 0 9.346 0L7.007 8.317h-.02L4.628 0S3.47.344 2.25 1.503C.95 2.733-.17 4.623.02 7.617.171 9.986 1.85 12 1.85 12l3.248-.01S2.31 10.445 1.64 8.014c-.8-2.87.45-4.863 1.41-5.812.39-.355.959-.439 1.169.323l2.778 9.391h.01s2.049-6.96 2.778-9.39c.22-.763.79-.68 1.17-.324.96.95 2.208 2.942 1.409 5.812-.67 2.431-3.458 3.976-3.458 3.976l3.248.01s1.689-2.024 1.829-4.383c.17-2.994-.95-4.883-2.259-6.114z"/>
</svg>
