<?xml version="1.0" encoding="utf-8"?>
<!-- Generator: Adobe Illustrator 22.1.0, SVG Export Plug-In . SVG Version: 6.00 Build 0)  -->
<svg version="1.1" id="Слой_1" xmlns="http://www.w3.org/2000/svg" xmlns:xlink="http://www.w3.org/1999/xlink" x="0px" y="0px"
	 viewBox="0 0 17 18" style="enable-background:new 0 0 17 18;" xml:space="preserve">
<style type="text/css">
	.st0{fill:#9FA3A7;}
</style>
<g>
	<path class="st0" d="M16,18h-6c-0.3,0-0.6-0.1-0.7-0.3C9.1,17.5,9,17.2,9,16.9l0.2-1.3l-2.6,0C3,15.6,0,12.6,0,9c0-0.6,0.4-1,1-1h8
		V2c0-1.1,0.9-2,2-2h4c1.1,0,2,0.9,2,2v7c0,1-0.2,1.9-0.6,2.8l0.6,5.1c0,0.3-0.1,0.6-0.2,0.8C16.6,17.9,16.3,18,16,18z M11.1,16h3.8
		l-0.5-4.3c0-0.2,0-0.4,0.1-0.6c0.2-0.4,0.3-0.7,0.4-1.1H2.1c0.5,2.1,2.3,3.6,4.5,3.6l3.7,0c0.3,0,0.6,0.1,0.7,0.3
		c0.2,0.2,0.3,0.5,0.2,0.8L11.1,16z M11,8h4V2h-4L11,8z"/>
</g>
</svg>
