<?xml version="1.0" encoding="utf-8"?>
<!-- Generator: Adobe Illustrator 22.1.0, SVG Export Plug-In . SVG Version: 6.00 Build 0)  -->
<svg version="1.1" id="Слой_1" xmlns="http://www.w3.org/2000/svg" xmlns:xlink="http://www.w3.org/1999/xlink" x="0px" y="0px"
	 viewBox="0 0 43 27" style="enable-background:new 0 0 43 27;" xml:space="preserve">
<style type="text/css">
	.st0{fill:#2ECB6B;}
</style>
<g>
	<g>
		<path class="st0" d="M41.7,26.3c-0.3,0-0.7-0.1-0.9-0.4L24.6,8.6l-8.1,8.6c-0.2,0.3-0.6,0.4-0.9,0.4l0,0c-0.3,0-0.7-0.1-0.9-0.4
			L1.1,2.9C0.6,2.4,0.6,1.6,1.1,1.1c0.5-0.5,1.3-0.5,1.8,0.1l12.6,13.4l8.1-8.6c0.2-0.3,0.6-0.4,0.9-0.4l0,0c0.3,0,0.7,0.1,0.9,0.4
			l17.2,18.2c0.5,0.5,0.4,1.3-0.1,1.8C42.3,26.1,42,26.3,41.7,26.3z"/>
	</g>
	<g>
		<path class="st0" d="M41.7,26.3H31.3c-0.7,0-1.3-0.6-1.3-1.3s0.6-1.3,1.3-1.3h9.2V12.5c0-0.7,0.6-1.3,1.3-1.3s1.3,0.6,1.3,1.3V25
			C43,25.7,42.4,26.3,41.7,26.3z"/>
	</g>
</g>
</svg>
