<svg xmlns="http://www.w3.org/2000/svg" width="13" height="14" viewBox="0 0 13 14">
    <path fill="#FFF" fill-rule="evenodd" d="M13 13.999H1s-.029-1.814 0-3c.688-.286 2.651-1.198 3.812-1.525.09-.026.104-.032.104-.411 0-.408-.048-.696-.154-.908a4.406 4.406 0 0 1-.373-1.216c-.171-.188-.402-.559-.551-1.267-.131-.623-.069-.85.017-1.063.009-.022.019-.044.026-.069.032-.143-.013-.902-.125-1.492-.078-.404.02-1.264.604-1.976C4.73.623 5.436.071 6.704-.005h.707c1.29.076 1.997.628 2.366 1.077.584.712.681 1.572.604 1.976-.112.59-.157 1.349-.124 1.495.006.022.016.044.025.066.087.213.148.44.017 1.063-.148.708-.381 1.079-.551 1.267a4.475 4.475 0 0 1-.373 1.216c-.132.266-.268.581-.268.895 0 .379.015.384.111.412C10.345 9.779 13 10.999 13 10.999v3z"/>
</svg>
