<?xml version="1.0" encoding="utf-8"?>
<!-- Generator: Adobe Illustrator 22.1.0, SVG Export Plug-In . SVG Version: 6.00 Build 0)  -->
<svg version="1.1" id="Слой_1" xmlns="http://www.w3.org/2000/svg" xmlns:xlink="http://www.w3.org/1999/xlink" x="0px" y="0px"
	 viewBox="0 0 24 16" style="enable-background:new 0 0 24 16;" xml:space="preserve">
<g transform="translate(1 1)">
	<g>
		<path d="M22,13c-0.2,0-0.4-0.1-0.6-0.2l-7-5C14.2,7.6,14,7.3,14,7s0.2-0.6,0.4-0.8l7-5c0.3-0.2,0.7-0.2,1-0.1
			C22.8,1.3,23,1.6,23,2v10c0,0.4-0.2,0.7-0.5,0.9C22.3,13,22.2,13,22,13z M16.7,7l4.3,3.1V3.9L16.7,7z"/>
	</g>
	<g>
		<path d="M13,15H2c-1.7,0-3-1.3-3-3V2c0-1.7,1.3-3,3-3h11c1.7,0,3,1.3,3,3v10C16,13.7,14.7,15,13,15z M2,1C1.4,1,1,1.4,1,2v10
			c0,0.6,0.4,1,1,1h11c0.6,0,1-0.4,1-1V2c0-0.6-0.4-1-1-1H2z"/>
	</g>
</g>
</svg>
